ply
format ascii 1.0
comment Created by Blender 2.92.0 - www.blender.org
element vertex 144
property float x
property float y
property float z
property float nx
property float ny
property float nz
property uchar red
property uchar green
property uchar blue
property uchar alpha
element face 48
property list uchar uint vertex_indices
end_header
0.152272 -0.138776 0.000226 0.423826 -0.831867 0.358286 255 83 168 255
-0.001275 -0.160873 0.130556 0.423826 -0.831867 0.358286 255 83 168 255
-0.001162 -0.216949 0.000226 0.423826 -0.831867 0.358286 255 83 168 255
-0.162083 -0.131596 0.000226 -0.851867 -0.358268 0.382056 255 83 168 255
-0.156768 -0.001588 0.133989 -0.851867 -0.358268 0.382056 255 83 168 255
-0.216932 -0.001179 0.000226 -0.851867 -0.358268 0.382056 255 83 168 255
-0.137676 0.153252 0.000226 -0.380820 0.847545 0.369654 255 83 168 255
-0.001275 0.157697 0.130556 -0.380820 0.847545 0.369654 255 83 168 255
-0.001162 0.214591 0.000226 -0.380820 0.847545 0.369654 255 83 168 255
-0.001762 -0.001710 0.214432 0.268975 0.447847 0.852693 255 83 168 255
0.099626 0.097096 0.130556 0.268975 0.447847 0.852693 255 83 168 255
-0.001275 0.157697 0.130556 0.268975 0.447847 0.852693 255 83 168 255
0.157334 0.130965 0.000226 0.437627 0.829428 -0.347177 255 83 168 255
-0.001275 0.161489 -0.126780 0.437627 0.829428 -0.347177 255 83 168 255
-0.001162 0.214591 0.000226 0.437627 0.829428 -0.347177 255 83 168 255
0.152272 -0.138776 0.000226 0.847494 -0.383941 -0.366529 255 83 168 255
0.158010 -0.001588 -0.130213 0.847494 -0.383941 -0.366529 255 83 168 255
0.214608 -0.001179 0.000226 0.847494 -0.383941 -0.366529 255 83 168 255
-0.162083 -0.131596 0.000226 -0.438105 -0.825982 -0.354708 255 83 168 255
-0.001275 -0.160873 -0.130213 -0.438105 -0.825982 -0.354708 255 83 168 255
-0.001162 -0.216949 0.000226 -0.438105 -0.825982 -0.354708 255 83 168 255
-0.001275 0.161489 -0.126780 -0.382992 0.852380 -0.356040 255 83 168 255
-0.137676 0.153252 0.000226 -0.382992 0.852380 -0.356040 255 83 168 255
-0.001162 0.214591 0.000226 -0.382992 0.852380 -0.356040 255 83 168 255
0.152272 -0.138776 0.000226 0.471249 -0.773358 0.424077 255 83 168 255
0.102511 -0.097631 0.130556 0.471249 -0.773358 0.424077 255 83 168 255
-0.001275 -0.160873 0.130556 0.471249 -0.773358 0.424077 255 83 168 255
0.099626 0.097096 0.130556 0.482141 0.802769 0.350859 255 83 168 255
-0.001162 0.214591 0.000226 0.482141 0.802769 0.350859 255 83 168 255
-0.001275 0.157697 0.130556 0.482141 0.802769 0.350859 255 83 168 255
0.102511 -0.097631 0.130556 0.272904 -0.447859 0.851438 255 83 168 255
-0.001762 -0.001710 0.214432 0.272904 -0.447859 0.851438 255 83 168 255
-0.001275 -0.160873 0.130556 0.272904 -0.447859 0.851438 255 83 168 255
-0.105023 -0.096125 0.132370 -0.445158 -0.258342 0.857376 255 83 168 255
-0.001762 -0.001710 0.214432 -0.445158 -0.258342 0.857376 255 83 168 255
-0.156768 -0.001588 0.133989 -0.445158 -0.258342 0.857376 255 83 168 255
-0.093132 0.104886 0.132161 -0.244912 0.452056 0.857708 255 83 168 255
-0.001762 -0.001710 0.214432 -0.244912 0.452056 0.857708 255 83 168 255
-0.001275 0.157697 0.130556 -0.244912 0.452056 0.857708 255 83 168 255
-0.107414 -0.088125 -0.136066 -0.261764 -0.450580 -0.853497 255 83 168 255
-0.001762 -0.001710 -0.214089 -0.261764 -0.450580 -0.853497 255 83 168 255
-0.001275 -0.160873 -0.130213 -0.261764 -0.450580 -0.853497 255 83 168 255
-0.086780 0.109513 -0.133060 -0.426262 0.296734 -0.854547 255 83 168 255
-0.001762 -0.001710 -0.214089 -0.426262 0.296734 -0.854547 255 83 168 255
-0.149183 -0.001588 -0.140511 -0.426262 0.296734 -0.854547 255 83 168 255
0.104299 0.094664 -0.128599 0.272283 0.453267 -0.848770 255 83 168 255
-0.001762 -0.001710 -0.214089 0.272283 0.453267 -0.848770 255 83 168 255
-0.001275 0.161489 -0.126780 0.272283 0.453267 -0.848770 255 83 168 255
0.093128 -0.107013 -0.130213 0.447043 -0.275123 -0.851152 255 83 168 255
-0.001762 -0.001710 -0.214089 0.447043 -0.275123 -0.851152 255 83 168 255
0.158010 -0.001588 -0.130213 0.447043 -0.275123 -0.851152 255 83 168 255
0.157334 0.130965 0.000226 0.778752 0.442024 -0.445152 255 83 168 255
0.158010 -0.001588 -0.130213 0.778752 0.442024 -0.445152 255 83 168 255
0.104299 0.094664 -0.128599 0.778752 0.442024 -0.445152 255 83 168 255
0.157334 0.130965 0.000226 0.851988 0.369273 0.371152 255 83 168 255
0.158010 -0.001588 0.130556 0.851988 0.369273 0.371152 255 83 168 255
0.214608 -0.001179 0.000226 0.851988 0.369273 0.371152 255 83 168 255
0.152272 -0.138776 0.000226 0.777960 -0.449550 0.438957 255 83 168 255
0.158010 -0.001588 0.130556 0.777960 -0.449550 0.438957 255 83 168 255
0.102511 -0.097631 0.130556 0.777960 -0.449550 0.438957 255 83 168 255
0.093128 -0.107013 -0.130213 0.464176 -0.813588 -0.350164 255 83 168 255
-0.001162 -0.216949 0.000226 0.464176 -0.813588 -0.350164 255 83 168 255
-0.001275 -0.160873 -0.130213 0.464176 -0.813588 -0.350164 255 83 168 255
-0.162083 -0.131596 0.000226 -0.795498 -0.407023 -0.448905 255 83 168 255
-0.149183 -0.001588 -0.140511 -0.795498 -0.407023 -0.448905 255 83 168 255
-0.107414 -0.088125 -0.136066 -0.795498 -0.407023 -0.448905 255 83 168 255
-0.105023 -0.096125 0.132370 -0.492899 -0.799403 0.343520 255 83 168 255
-0.001162 -0.216949 0.000226 -0.492899 -0.799403 0.343520 255 83 168 255
-0.001275 -0.160873 0.130556 -0.492899 -0.799403 0.343520 255 83 168 255
-0.137676 0.153252 0.000226 -0.817436 0.419516 -0.394722 255 83 168 255
-0.149183 -0.001588 -0.140511 -0.817436 0.419516 -0.394722 255 83 168 255
-0.216932 -0.001179 0.000226 -0.817436 0.419516 -0.394722 255 83 168 255
-0.137676 0.153252 0.000226 -0.770904 0.468158 0.431898 255 83 168 255
-0.156768 -0.001588 0.133989 -0.770904 0.468158 0.431898 255 83 168 255
-0.093132 0.104886 0.132161 -0.770904 0.468158 0.431898 255 83 168 255
-0.162083 -0.131596 0.000226 -0.778826 -0.434048 0.452806 255 83 168 255
-0.105023 -0.096125 0.132370 -0.778826 -0.434048 0.452806 255 83 168 255
-0.156768 -0.001588 0.133989 -0.778826 -0.434048 0.452806 255 83 168 255
-0.137676 0.153252 0.000226 -0.442669 0.783226 0.436578 255 83 168 255
-0.093132 0.104886 0.132161 -0.442669 0.783226 0.436578 255 83 168 255
-0.001275 0.157697 0.130556 -0.442669 0.783226 0.436578 255 83 168 255
-0.001762 -0.001710 0.214432 0.448032 0.265067 0.853819 255 83 168 255
0.158010 -0.001588 0.130556 0.448032 0.265067 0.853819 255 83 168 255
0.099626 0.097096 0.130556 0.448032 0.265067 0.853819 255 83 168 255
0.157334 0.130965 0.000226 0.481330 0.771740 -0.415619 255 83 168 255
0.104299 0.094664 -0.128599 0.481330 0.771740 -0.415619 255 83 168 255
-0.001275 0.161489 -0.126780 0.481330 0.771740 -0.415619 255 83 168 255
0.152272 -0.138776 0.000226 0.757510 -0.466192 -0.456994 255 83 168 255
0.093128 -0.107013 -0.130213 0.757510 -0.466192 -0.456994 255 83 168 255
0.158010 -0.001588 -0.130213 0.757510 -0.466192 -0.456994 255 83 168 255
-0.162083 -0.131596 0.000226 -0.491868 -0.752821 -0.437409 255 83 168 255
-0.107414 -0.088125 -0.136066 -0.491868 -0.752821 -0.437409 255 83 168 255
-0.001275 -0.160873 -0.130213 -0.491868 -0.752821 -0.437409 255 83 168 255
-0.001275 0.161489 -0.126780 -0.446216 0.785802 -0.428259 255 83 168 255
-0.086780 0.109513 -0.133060 -0.446216 0.785802 -0.428259 255 83 168 255
-0.137676 0.153252 0.000226 -0.446216 0.785802 -0.428259 255 83 168 255
0.099626 0.097096 0.130556 0.427690 0.810595 0.400022 255 83 168 255
0.157334 0.130965 0.000226 0.427690 0.810595 0.400022 255 83 168 255
-0.001162 0.214591 0.000226 0.427690 0.810595 0.400022 255 83 168 255
0.102511 -0.097631 0.130556 0.449050 -0.259488 0.854997 255 83 168 255
0.158010 -0.001588 0.130556 0.449050 -0.259488 0.854997 255 83 168 255
-0.001762 -0.001710 0.214432 0.449050 -0.259488 0.854997 255 83 168 255
-0.105023 -0.096125 0.132370 -0.265972 -0.450053 0.852473 255 83 168 255
-0.001275 -0.160873 0.130556 -0.265972 -0.450053 0.852473 255 83 168 255
-0.001762 -0.001710 0.214432 -0.265972 -0.450053 0.852473 255 83 168 255
-0.093132 0.104886 0.132161 -0.442183 0.278912 0.852457 255 83 168 255
-0.156768 -0.001588 0.133989 -0.442183 0.278912 0.852457 255 83 168 255
-0.001762 -0.001710 0.214432 -0.442183 0.278912 0.852457 255 83 168 255
-0.107414 -0.088125 -0.136066 -0.432202 -0.253073 -0.865538 255 83 168 255
-0.149183 -0.001588 -0.140511 -0.432202 -0.253073 -0.865538 255 83 168 255
-0.001762 -0.001710 -0.214089 -0.432202 -0.253073 -0.865538 255 83 168 255
-0.086780 0.109513 -0.133060 -0.217023 0.460983 -0.860463 255 83 168 255
-0.001275 0.161489 -0.126780 -0.217023 0.460983 -0.860463 255 83 168 255
-0.001762 -0.001710 -0.214089 -0.217023 0.460983 -0.860463 255 83 168 255
0.104299 0.094664 -0.128599 0.448120 0.264381 -0.853985 255 83 168 255
0.158010 -0.001588 -0.130213 0.448120 0.264381 -0.853985 255 83 168 255
-0.001762 -0.001710 -0.214089 0.448120 0.264381 -0.853985 255 83 168 255
0.093128 -0.107013 -0.130213 0.256720 -0.449970 -0.855349 255 83 168 255
-0.001275 -0.160873 -0.130213 0.256720 -0.449970 -0.855349 255 83 168 255
-0.001762 -0.001710 -0.214089 0.256720 -0.449970 -0.855349 255 83 168 255
0.157334 0.130965 0.000226 0.852086 0.369315 -0.370885 255 83 168 255
0.214608 -0.001179 0.000226 0.852086 0.369315 -0.370885 255 83 168 255
0.158010 -0.001588 -0.130213 0.852086 0.369315 -0.370885 255 83 168 255
0.157334 0.130965 0.000226 0.765645 0.452975 0.456729 255 83 168 255
0.099626 0.097096 0.130556 0.765645 0.452975 0.456729 255 83 168 255
0.158010 -0.001588 0.130556 0.765645 0.452975 0.456729 255 83 168 255
0.152272 -0.138776 0.000226 0.847399 -0.383898 0.366793 255 83 168 255
0.214608 -0.001179 0.000226 0.847399 -0.383898 0.366793 255 83 168 255
0.158010 -0.001588 0.130556 0.847399 -0.383898 0.366793 255 83 168 255
0.093128 -0.107013 -0.130213 0.418126 -0.820680 -0.389429 255 83 168 255
0.152272 -0.138776 0.000226 0.418126 -0.820680 -0.389429 255 83 168 255
-0.001162 -0.216949 0.000226 0.418126 -0.820680 -0.389429 255 83 168 255
-0.162083 -0.131596 0.000226 -0.842919 -0.354505 -0.404738 255 83 168 255
-0.216932 -0.001179 0.000226 -0.842919 -0.354505 -0.404738 255 83 168 255
-0.149183 -0.001588 -0.140511 -0.842919 -0.354505 -0.404738 255 83 168 255
-0.105023 -0.096125 0.132370 -0.428976 -0.808772 0.402327 255 83 168 255
-0.162083 -0.131596 0.000226 -0.428976 -0.808772 0.402327 255 83 168 255
-0.001162 -0.216949 0.000226 -0.428976 -0.808772 0.402327 255 83 168 255
-0.137676 0.153252 0.000226 -0.767926 0.461141 -0.444566 255 83 168 255
-0.086780 0.109513 -0.133060 -0.767926 0.461141 -0.444566 255 83 168 255
-0.149183 -0.001588 -0.140511 -0.767926 0.461141 -0.444566 255 83 168 255
-0.137676 0.153252 0.000226 -0.825601 0.423706 0.372635 255 83 168 255
-0.216932 -0.001179 0.000226 -0.825601 0.423706 0.372635 255 83 168 255
-0.156768 -0.001588 0.133989 -0.825601 0.423706 0.372635 255 83 168 255
3 0 1 2
3 3 4 5
3 6 7 8
3 9 10 11
3 12 13 14
3 15 16 17
3 18 19 20
3 21 22 23
3 24 25 26
3 27 28 29
3 30 31 32
3 33 34 35
3 36 37 38
3 39 40 41
3 42 43 44
3 45 46 47
3 48 49 50
3 51 52 53
3 54 55 56
3 57 58 59
3 60 61 62
3 63 64 65
3 66 67 68
3 69 70 71
3 72 73 74
3 75 76 77
3 78 79 80
3 81 82 83
3 84 85 86
3 87 88 89
3 90 91 92
3 93 94 95
3 96 97 98
3 99 100 101
3 102 103 104
3 105 106 107
3 108 109 110
3 111 112 113
3 114 115 116
3 117 118 119
3 120 121 122
3 123 124 125
3 126 127 128
3 129 130 131
3 132 133 134
3 135 136 137
3 138 139 140
3 141 142 143
